<svg width="200" height="51" viewBox="0 0 200 51" fill="none" xmlns="http://www.w3.org/2000/svg">
<ellipse cx="26.5" cy="25.0661" rx="26.5" ry="25.0661" fill="white"/>
<path d="M31.924 11.1426C34.249 11.1426 36.1338 13.0274 36.1338 15.3524C36.1338 17.6774 34.249 19.5622 31.924 19.5622L31.5633 19.5622C29.0392 19.5622 26.9929 17.516 26.9929 14.9918L26.9929 11.1426L31.924 11.1426Z" fill="#F0A51D"/>
<path d="M19.8041 39.4218C17.479 39.4218 15.5942 37.537 15.5942 35.2119C15.5942 32.8869 17.479 31.0021 19.8041 31.0021L20.1647 31.0021C22.6889 31.0021 24.7351 33.0484 24.7351 35.5726L24.7351 39.4218L19.8041 39.4218Z" fill="#F0A51D"/>
<path d="M15.3384 19.5622C15.3384 14.9122 19.108 11.1426 23.758 11.1426H24.7368V19.5622H15.3384Z" fill="#29435A"/>
<path d="M24.7378 27.9785L23.7591 27.9785C19.109 27.9785 15.3394 24.2089 15.3394 19.5589L24.7378 19.5589L24.7378 27.9785Z" fill="#49C0B6"/>
<path d="M36.2661 31.1247C36.2661 26.4747 32.4965 22.7051 27.8465 22.7051H26.8677V31.1247H36.2661Z" fill="#49C0B6"/>
<path d="M26.8662 39.4218L27.845 39.4218C32.495 39.4218 36.2646 35.6522 36.2646 31.0021L26.8662 31.0021L26.8662 39.4218Z" fill="#29435A"/>
<path d="M60.594 36.608C58.9513 36.608 57.7247 36.3947 56.914 35.968C56.7647 35.8827 56.69 35.744 56.69 35.552C56.754 34.336 56.786 33.28 56.786 32.384V31.232L57.49 30.976C57.49 32.4053 57.522 33.248 57.586 33.504C57.714 34.1013 58.2047 34.6133 59.058 35.04C59.9113 35.4667 60.8073 35.68 61.746 35.68C62.5567 35.68 63.282 35.5093 63.922 35.168C65.0953 34.528 65.682 33.344 65.682 31.616C65.682 30.7627 65.522 29.9733 65.202 29.248C64.7113 28.16 63.73 27.1787 62.258 26.304C61.1487 25.6427 60.2953 25.1413 59.698 24.8C59.122 24.4373 58.8127 24.2347 58.77 24.192C57.6393 23.2533 57.074 22.0587 57.074 20.608C57.074 18.9013 57.7353 17.4507 59.058 16.256C60.3167 15.0827 61.9273 14.496 63.89 14.496H63.922C65.138 14.496 66.1407 14.6773 66.93 15.04C67.4207 15.296 67.666 15.5307 67.666 15.744V15.872C67.218 17.0453 66.994 18.3253 66.994 19.712L66.322 19.424C66.45 19.104 66.514 18.6667 66.514 18.112C66.514 17.28 66.2793 16.672 65.81 16.288C65.0207 15.6907 64.1033 15.392 63.058 15.392C61.9913 15.392 61.1167 15.7013 60.434 16.32C59.6447 17.024 59.25 17.9947 59.25 19.232C59.25 20.5333 59.8153 21.6533 60.946 22.592C61.138 22.7627 61.522 23.04 62.098 23.424C62.6953 23.7867 63.4847 24.2667 64.466 24.864C65.9807 25.76 66.994 26.624 67.506 27.456C68.0607 28.3947 68.338 29.3973 68.338 30.464C68.338 31.552 68.0713 32.5547 67.538 33.472C66.9407 34.4533 66.162 35.1787 65.202 35.648C63.9647 36.288 62.4287 36.608 60.594 36.608ZM76.3503 36.416C76.1796 36.416 75.9983 36.4053 75.8063 36.384C75.6356 36.384 75.4649 36.3733 75.2943 36.352C73.4596 36.0533 72.5423 35.1467 72.5423 33.632V31.168L72.5103 29.6C72.5103 28.832 72.4996 28.128 72.4783 27.488C72.4783 26.848 72.4676 26.272 72.4463 25.76C72.4249 24.9707 72.3289 23.904 72.1583 22.56C71.9663 21.728 71.2516 21.312 70.0143 21.312C69.8649 21.312 69.7156 21.3227 69.5663 21.344C69.4169 21.344 69.2676 21.3547 69.1182 21.376L69.4703 20.704C70.2169 20.7893 70.9423 20.8533 71.6463 20.896C72.3503 20.9387 73.0436 20.96 73.7263 20.96C74.9636 20.96 76.1583 20.896 77.3103 20.768L77.0223 21.376L76.7983 21.344C76.4356 21.344 76.0623 21.472 75.6783 21.728C75.2943 21.9413 75.0383 22.2293 74.9103 22.592C74.8249 22.8693 74.7503 23.2427 74.6863 23.712C74.6223 24.16 74.5903 24.7147 74.5903 25.376V25.696L74.6223 30.336C74.6223 33.5147 75.5503 35.104 77.4062 35.104C77.5129 35.104 77.6089 35.104 77.6943 35.104C77.8009 35.104 77.9183 35.0933 78.0463 35.072C78.6009 35.008 79.2943 34.7627 80.1263 34.336C81.0436 33.8453 81.6836 33.3227 82.0463 32.768V29.568C82.0463 27.7973 82.0249 26.3467 81.9823 25.216C81.9396 24.0853 81.8756 23.264 81.7903 22.752C81.5983 21.8133 80.7769 21.344 79.3263 21.344L79.6783 20.832C79.9556 20.9173 81.0436 20.992 82.9423 21.056C83.1769 21.0347 83.6249 21.0133 84.2863 20.992C84.9476 20.9493 85.8116 20.8853 86.8783 20.8L86.6543 21.344C86.5689 21.3227 86.4836 21.312 86.3983 21.312C86.3343 21.2907 86.2596 21.28 86.1743 21.28C85.1503 21.28 84.5209 21.7707 84.2863 22.752C84.0943 23.4773 83.9983 25.76 83.9983 29.6C83.9983 29.984 84.0089 30.4107 84.0303 30.88C84.0729 31.328 84.1156 31.8187 84.1583 32.352C84.2649 33.0347 84.3609 33.5893 84.4463 34.016C84.5529 34.4427 84.6809 34.7413 84.8303 34.912C85.1503 35.168 85.6729 35.3067 86.3983 35.328C86.5049 35.3493 86.6223 35.36 86.7503 35.36C86.8783 35.36 86.9849 35.36 87.0703 35.36C87.4543 35.36 87.7849 35.328 88.0623 35.264L87.5823 36.064C86.9209 36.064 85.6623 36.032 83.8063 35.968C83.6996 35.968 83.5609 35.968 83.3903 35.968C83.2409 35.968 83.0809 35.9893 82.9103 36.032C82.5263 36.096 82.2916 36.128 82.2063 36.128C81.9289 36.128 81.7903 36.0107 81.7903 35.776C81.7903 35.6693 81.8009 35.5947 81.8223 35.552C81.8649 35.3387 81.9076 35.104 81.9503 34.848C81.9929 34.5707 82.0249 34.272 82.0463 33.952C81.6409 34.1867 81.2569 34.4107 80.8943 34.624C80.5529 34.8373 80.2329 35.0507 79.9343 35.264C78.8889 36.032 77.6943 36.416 76.3503 36.416ZM87.741 42.144L88.061 41.504C88.1463 41.5253 88.317 41.536 88.573 41.536C89.2343 41.536 89.821 41.4293 90.333 41.216C91.037 40.96 91.453 40.5547 91.581 40C91.773 39.1893 91.869 36.9067 91.869 33.152V28.48C91.869 24.4907 91.6557 22.2293 91.229 21.696C90.8237 21.376 90.301 21.216 89.661 21.216C89.5117 21.216 89.341 21.2267 89.149 21.248C88.9783 21.2693 88.797 21.3013 88.605 21.344L88.893 20.736C89.1277 20.7573 89.5117 20.7787 90.045 20.8C90.5783 20.8213 91.2503 20.8427 92.061 20.864C92.317 20.8853 92.669 20.8533 93.117 20.768C93.3517 20.7253 93.533 20.6933 93.661 20.672C93.789 20.6507 93.8743 20.64 93.917 20.64C94.173 20.64 94.301 20.7467 94.301 20.96C94.301 20.9813 94.2903 21.0027 94.269 21.024C94.269 21.0453 94.269 21.0773 94.269 21.12C94.2263 21.3973 94.1837 21.728 94.141 22.112C94.0983 22.496 94.0557 22.912 94.013 23.36C94.8663 22.0373 96.3703 21.248 98.525 20.992C98.717 20.9493 98.909 20.928 99.101 20.928C99.293 20.928 99.485 20.928 99.677 20.928C101.533 20.928 102.845 21.5787 103.613 22.88C104.253 23.9253 104.573 25.568 104.573 27.808C104.573 33.44 102.365 36.256 97.949 36.256C96.0077 36.256 94.6317 35.648 93.821 34.432V37.248C93.821 37.7813 93.8423 38.272 93.885 38.72C93.949 39.1893 94.013 39.616 94.077 40C94.1623 40.576 94.653 40.992 95.549 41.248C96.061 41.3973 96.5943 41.472 97.149 41.472H97.661L97.341 42.144C96.7863 41.9947 96.093 41.888 95.261 41.824C94.429 41.7813 93.6397 41.76 92.893 41.76C92.6157 41.76 92.0503 41.792 91.197 41.856C90.3437 41.9413 89.1917 42.0373 87.741 42.144ZM97.693 35.328C99.357 35.328 100.637 34.56 101.533 33.024C102.045 32.0853 102.301 30.7413 102.301 28.992C102.301 27.1147 102.077 25.6213 101.629 24.512C100.989 22.912 99.869 22.112 98.269 22.112C96.5837 22.112 95.3037 22.88 94.429 24.416C93.8957 25.3333 93.629 26.6773 93.629 28.448C93.629 30.2827 93.853 31.776 94.301 32.928C94.9837 34.528 96.1143 35.328 97.693 35.328ZM105.616 42.144L105.936 41.504C106.021 41.5253 106.192 41.536 106.448 41.536C107.109 41.536 107.696 41.4293 108.208 41.216C108.912 40.96 109.328 40.5547 109.456 40C109.648 39.1893 109.744 36.9067 109.744 33.152V28.48C109.744 24.4907 109.531 22.2293 109.104 21.696C108.699 21.376 108.176 21.216 107.536 21.216C107.387 21.216 107.216 21.2267 107.024 21.248C106.853 21.2693 106.672 21.3013 106.48 21.344L106.768 20.736C107.003 20.7573 107.387 20.7787 107.92 20.8C108.453 20.8213 109.125 20.8427 109.936 20.864C110.192 20.8853 110.544 20.8533 110.992 20.768C111.227 20.7253 111.408 20.6933 111.536 20.672C111.664 20.6507 111.749 20.64 111.792 20.64C112.048 20.64 112.176 20.7467 112.176 20.96C112.176 20.9813 112.165 21.0027 112.144 21.024C112.144 21.0453 112.144 21.0773 112.144 21.12C112.101 21.3973 112.059 21.728 112.016 22.112C111.973 22.496 111.931 22.912 111.888 23.36C112.741 22.0373 114.245 21.248 116.4 20.992C116.592 20.9493 116.784 20.928 116.976 20.928C117.168 20.928 117.36 20.928 117.552 20.928C119.408 20.928 120.72 21.5787 121.488 22.88C122.128 23.9253 122.448 25.568 122.448 27.808C122.448 33.44 120.24 36.256 115.824 36.256C113.883 36.256 112.507 35.648 111.696 34.432V37.248C111.696 37.7813 111.717 38.272 111.76 38.72C111.824 39.1893 111.888 39.616 111.952 40C112.037 40.576 112.528 40.992 113.424 41.248C113.936 41.3973 114.469 41.472 115.024 41.472H115.536L115.216 42.144C114.661 41.9947 113.968 41.888 113.136 41.824C112.304 41.7813 111.515 41.76 110.768 41.76C110.491 41.76 109.925 41.792 109.072 41.856C108.219 41.9413 107.067 42.0373 105.616 42.144ZM115.568 35.328C117.232 35.328 118.512 34.56 119.408 33.024C119.92 32.0853 120.176 30.7413 120.176 28.992C120.176 27.1147 119.952 25.6213 119.504 24.512C118.864 22.912 117.744 22.112 116.144 22.112C114.459 22.112 113.179 22.88 112.304 24.416C111.771 25.3333 111.504 26.6773 111.504 28.448C111.504 30.2827 111.728 31.776 112.176 32.928C112.859 34.528 113.989 35.328 115.568 35.328ZM123.651 36.096L123.971 35.456C124.056 35.4773 124.142 35.488 124.227 35.488C124.334 35.488 124.44 35.488 124.547 35.488C126.232 35.488 127.182 34.9973 127.395 34.016C127.48 33.6747 127.544 32.9387 127.587 31.808C127.651 30.656 127.683 29.1093 127.683 27.168V22.496C127.704 18.5067 127.491 16.2453 127.043 15.712C126.659 15.392 126.147 15.232 125.507 15.232C125.123 15.232 124.76 15.2747 124.419 15.36L124.707 14.752C124.963 14.7733 125.358 14.7947 125.891 14.816C126.424 14.8373 127.086 14.8693 127.875 14.912C128.024 14.912 128.184 14.9013 128.355 14.88C128.526 14.8587 128.718 14.8267 128.931 14.784C129.336 14.6987 129.614 14.656 129.763 14.656C129.998 14.656 130.115 14.7627 130.115 14.976C130.115 15.04 130.104 15.0933 130.083 15.136C129.934 15.968 129.816 17.2053 129.731 18.848C129.667 20.4907 129.635 22.5493 129.635 25.024V27.2C129.635 28.9707 129.656 30.432 129.699 31.584C129.742 32.7147 129.806 33.5253 129.891 34.016C130.019 34.592 130.499 34.9867 131.331 35.2C131.779 35.328 132.248 35.392 132.739 35.392C132.846 35.392 132.952 35.392 133.059 35.392C133.166 35.392 133.272 35.3813 133.379 35.36L133.027 36.096C132.75 35.9893 132.248 35.9147 131.523 35.872C130.798 35.808 129.87 35.7653 128.739 35.744C128.547 35.744 128.024 35.776 127.171 35.84C126.339 35.904 125.166 35.9893 123.651 36.096ZM136.892 41.728C135.932 41.728 135.1 41.5573 134.396 41.216C133.841 40.96 133.543 40.672 133.5 40.352C133.457 39.648 133.404 39.0293 133.34 38.496C133.276 37.984 133.212 37.5573 133.148 37.216L134.14 36.96C134.204 37.408 134.268 37.792 134.332 38.112C134.503 38.7947 134.727 39.36 135.004 39.808C135.452 40.448 136.092 40.768 136.924 40.768C137.841 40.768 138.631 40.2027 139.292 39.072C139.569 38.6453 139.793 38.1867 139.964 37.696C140.156 37.2053 140.305 36.6933 140.412 36.16C139.729 34.304 139.132 32.7253 138.62 31.424C138.129 30.1013 137.735 29.0453 137.436 28.256C135.879 24.3093 134.887 22.1653 134.46 21.824C134.055 21.4827 133.372 21.312 132.412 21.312C132.263 21.312 132.135 21.312 132.028 21.312C131.921 21.312 131.815 21.3333 131.708 21.376L131.996 20.736C132.188 20.7573 132.497 20.7787 132.924 20.8C133.329 20.8213 133.863 20.8533 134.524 20.896L136.284 20.992C137.585 20.992 139.111 20.896 140.86 20.704L140.412 21.376H140.092C139.623 21.376 139.175 21.44 138.748 21.568C138.193 21.8027 137.916 22.0907 137.916 22.432C137.916 23.712 139.036 26.976 141.276 32.224C141.404 32.4587 141.5 32.576 141.564 32.576C141.649 32.576 141.735 32.48 141.82 32.288C142.119 31.6693 142.439 30.944 142.78 30.112C143.121 29.28 143.463 28.3307 143.804 27.264C144.593 24.96 144.988 23.36 144.988 22.464C144.988 21.7173 144.327 21.344 143.004 21.344C142.855 21.344 142.705 21.344 142.556 21.344C142.428 21.344 142.3 21.3653 142.172 21.408L142.652 20.736C142.801 20.7573 143.057 20.7787 143.42 20.8C143.804 20.8213 144.316 20.8427 144.956 20.864C145.212 20.8853 145.468 20.896 145.724 20.896C145.98 20.896 146.247 20.896 146.524 20.896H147.804C148.444 20.896 149.372 20.832 150.588 20.704L150.268 21.28C149.607 21.28 148.903 21.4827 148.156 21.888C147.473 22.2933 146.791 23.168 146.108 24.512C145.724 25.2373 145.297 26.144 144.828 27.232C144.38 28.2987 143.911 29.5467 143.42 30.976L140.892 38.144C140.06 40.5333 138.727 41.728 136.892 41.728ZM163.739 37.024C163.675 36.9173 163.557 36.7573 163.387 36.544C163.237 36.3307 163.013 36.064 162.715 35.744C162.203 35.1893 161.883 34.7413 161.755 34.4C161.669 34.1653 161.573 33.8667 161.467 33.504C161.36 33.1413 161.232 32.7253 161.083 32.256C160.891 31.6587 160.656 30.9867 160.379 30.24C160.123 29.472 159.824 28.6293 159.483 27.712C159.099 26.6027 158.619 25.248 158.043 23.648C157.467 22.048 156.784 20.2133 155.995 18.144C155.867 19.3173 155.749 20.4907 155.643 21.664C155.536 22.816 155.44 23.9787 155.355 25.152C155.248 26.6667 155.163 27.968 155.099 29.056C155.035 30.144 155.003 31.0293 155.003 31.712C155.003 32.8213 155.067 33.6213 155.195 34.112C155.451 34.9653 156.251 35.392 157.595 35.392C157.701 35.392 157.808 35.392 157.915 35.392C158.043 35.3707 158.171 35.36 158.299 35.36L157.947 36.032C157.776 35.9893 157.36 35.9467 156.699 35.904C156.059 35.8613 155.173 35.7973 154.043 35.712C153.083 35.776 152.293 35.84 151.674 35.904C151.056 35.968 150.597 36.0427 150.299 36.128L150.587 35.488C151.909 35.488 152.667 35.072 152.859 34.24C153.2 32.896 153.477 31.4773 153.691 29.984C153.925 28.4693 154.107 26.88 154.235 25.216L154.939 16.992C154.768 16.1813 154.16 15.776 153.115 15.776C152.987 15.776 152.859 15.7867 152.731 15.808C152.624 15.808 152.517 15.8187 152.411 15.84L152.699 15.232C152.891 15.2533 153.189 15.2747 153.595 15.296C154 15.3173 154.523 15.3493 155.163 15.392C155.227 15.3707 155.291 15.36 155.355 15.36C155.44 15.36 155.525 15.36 155.611 15.36C155.931 15.36 156.293 15.3813 156.699 15.424C157.125 15.4453 157.595 15.4773 158.107 15.52C158.107 15.776 158.149 16.1387 158.235 16.608C158.341 17.0773 158.48 17.664 158.651 18.368C158.992 19.6693 159.419 21.0987 159.931 22.656C160.464 24.2133 161.072 25.9093 161.755 27.744C161.947 28.2987 162.203 28.992 162.523 29.824C162.843 30.656 163.205 31.616 163.611 32.704C163.717 32.9387 163.803 33.056 163.867 33.056C163.952 33.056 164.037 32.96 164.123 32.768C164.485 32.064 164.955 30.9973 165.531 29.568C166.107 28.1173 166.8 26.2933 167.611 24.096C169.424 19.3173 170.331 16.5013 170.331 15.648C170.331 15.5627 170.501 15.52 170.843 15.52C170.885 15.52 170.928 15.52 170.971 15.52C171.035 15.4987 171.099 15.488 171.163 15.488C171.269 15.488 171.376 15.4987 171.483 15.52C171.611 15.52 171.749 15.52 171.899 15.52L172.635 15.552C173.637 15.5093 175.077 15.3813 176.955 15.168L176.571 15.744C176.485 15.7227 176.4 15.712 176.315 15.712C176.229 15.712 176.133 15.712 176.027 15.712C175.216 15.712 174.619 15.968 174.235 16.48C174.171 16.6293 174.128 16.9067 174.107 17.312C174.085 17.696 174.075 18.2187 174.075 18.88C174.075 20.032 174.107 21.3013 174.171 22.688C174.256 24.0747 174.373 25.5787 174.523 27.2C174.843 30.8053 175.131 33.0773 175.387 34.016C175.515 34.5707 175.995 34.9653 176.827 35.2C177.317 35.328 177.797 35.392 178.267 35.392C178.373 35.392 178.469 35.392 178.555 35.392C178.661 35.392 178.768 35.3813 178.875 35.36L178.523 36.096C177.947 35.9253 176.347 35.808 173.723 35.744C173.552 35.744 173.04 35.776 172.187 35.84C171.355 35.904 170.181 35.9893 168.667 36.096L168.987 35.456C169.051 35.4773 169.125 35.488 169.211 35.488C169.296 35.488 169.381 35.488 169.467 35.488C170.149 35.488 170.747 35.3813 171.259 35.168C171.963 34.8693 172.368 34.464 172.475 33.952C172.496 33.824 172.507 33.6533 172.507 33.44C172.528 33.2267 172.539 32.9813 172.539 32.704C172.539 31.5307 172.443 29.6853 172.251 27.168C172.187 26.2293 172.091 25.0453 171.963 23.616C171.835 22.1867 171.664 20.5013 171.451 18.56C170.149 20.7787 168.635 24.096 166.907 28.512C165.307 32.5653 164.347 35.3493 164.027 36.864L163.739 37.024ZM186.461 36.256C184.115 36.256 182.461 35.5947 181.501 34.272C180.691 33.0987 180.285 31.2533 180.285 28.736C180.285 26.6667 180.616 24.9813 181.277 23.68C182.344 21.568 184.499 20.512 187.741 20.512C189.619 20.512 191.037 20.96 191.997 21.856C192.893 22.688 193.341 23.8293 193.341 25.28L192.413 26.496C191.901 27.2213 191.571 27.5733 191.421 27.552C190.952 27.488 190.451 27.456 189.917 27.456C189.832 27.456 189.725 27.4667 189.597 27.488C189.491 27.488 189.384 27.488 189.277 27.488L186.909 27.552C186.056 27.552 185.277 27.5733 184.573 27.616C183.891 27.6373 183.261 27.6693 182.685 27.712V28.224C182.685 30.3787 182.877 31.9253 183.261 32.864C183.923 34.4427 185.299 35.232 187.389 35.232C190.312 35.232 192.029 33.9093 192.541 31.264C192.563 31.1787 192.573 31.104 192.573 31.04C192.573 30.9547 192.573 30.8907 192.573 30.848L193.245 30.528C193.203 30.9547 193.171 31.68 193.149 32.704C193.171 32.9173 193.181 33.152 193.181 33.408C193.203 33.664 193.213 33.952 193.213 34.272C193.192 34.4853 193.053 34.6987 192.797 34.912C191.901 35.808 189.789 36.256 186.461 36.256ZM185.245 26.528C185.48 26.528 185.715 26.528 185.949 26.528C186.184 26.528 186.44 26.5173 186.717 26.496C187.613 26.4747 188.381 26.4427 189.021 26.4C189.683 26.3573 190.216 26.3147 190.621 26.272C191.048 26.208 191.261 25.856 191.261 25.216C191.261 25.0453 191.251 24.8747 191.229 24.704C191.208 24.5333 191.165 24.352 191.101 24.16C190.568 22.368 189.32 21.472 187.357 21.472C184.733 21.472 183.229 22.7947 182.845 25.44C182.824 25.504 182.813 25.6213 182.813 25.792C182.813 25.9413 182.792 26.1333 182.749 26.368C182.984 26.4107 183.304 26.4533 183.709 26.496C184.136 26.5173 184.648 26.528 185.245 26.528Z" fill="#29435A"/>
</svg>
