<svg width="200" height="51" fill="none" xmlns="http://www.w3.org/2000/svg"><ellipse cx="26.5" cy="25.066" rx="26.5" ry="25.066" fill="#fff"/><path d="M31.924 11.143a4.21 4.21 0 0 1 0 8.42h-.36a4.57 4.57 0 0 1-4.571-4.571v-3.85h4.931ZM19.804 39.422a4.21 4.21 0 1 1 0-8.42h.36a4.57 4.57 0 0 1 4.571 4.57v3.85h-4.93Z" fill="#F0A51D"/><path d="M15.338 19.562a8.42 8.42 0 0 1 8.42-8.42h.979v8.42h-9.399Z" fill="#29435A"/><path d="M24.738 27.979h-.979a8.42 8.42 0 0 1-8.42-8.42h9.399v8.42ZM36.266 31.125a8.42 8.42 0 0 0-8.42-8.42h-.978v8.42h9.398Z" fill="#49C0B6"/><path d="M26.866 39.422h.979a8.42 8.42 0 0 0 8.42-8.42h-9.399v8.42ZM60.594 36.608c-1.643 0-2.87-.213-3.68-.64-.15-.085-.224-.224-.224-.416.064-1.216.096-2.272.096-3.168v-1.152l.704-.256c0 1.43.032 2.272.096 2.528.128.597.619 1.11 1.472 1.536.853.427 1.75.64 2.688.64.81 0 1.536-.17 2.176-.512 1.173-.64 1.76-1.824 1.76-3.552a5.8 5.8 0 0 0-.48-2.368c-.49-1.088-1.472-2.07-2.944-2.944a173.385 173.385 0 0 0-2.56-1.504c-.576-.363-.885-.565-.928-.608-1.13-.939-1.696-2.133-1.696-3.584 0-1.707.661-3.157 1.984-4.352 1.259-1.173 2.87-1.76 4.832-1.76h.032c1.216 0 2.219.181 3.008.544.49.256.736.49.736.704v.128c-.448 1.173-.672 2.453-.672 3.84l-.672-.288c.128-.32.192-.757.192-1.312 0-.832-.235-1.44-.704-1.824-.79-.597-1.707-.896-2.752-.896-1.067 0-1.941.31-2.624.928-.79.704-1.184 1.675-1.184 2.912 0 1.301.565 2.421 1.696 3.36.192.17.576.448 1.152.832l2.368 1.44c1.515.896 2.528 1.76 3.04 2.592.555.939.832 1.941.832 3.008 0 1.088-.267 2.09-.8 3.008-.597.981-1.376 1.707-2.336 2.176-1.237.64-2.773.96-4.608.96Zm15.756-.192c-.17 0-.352-.01-.544-.032-.17 0-.341-.01-.512-.032-1.834-.299-2.752-1.205-2.752-2.72v-2.464L72.51 29.6c0-.768-.01-1.472-.032-2.112 0-.64-.01-1.216-.032-1.728-.021-.79-.117-1.856-.288-3.2-.192-.832-.906-1.248-2.144-1.248-.15 0-.298.01-.448.032-.15 0-.298.01-.448.032l.352-.672c.747.085 1.472.15 2.176.192.704.043 1.398.064 2.08.064 1.238 0 2.432-.064 3.584-.192l-.288.608-.224-.032c-.362 0-.736.128-1.12.384-.384.213-.64.501-.768.864-.085.277-.16.65-.224 1.12a12.063 12.063 0 0 0-.096 1.664v.32l.032 4.64c0 3.179.928 4.768 2.784 4.768h.288c.107 0 .224-.01.352-.032.555-.064 1.248-.31 2.08-.736.918-.49 1.558-1.013 1.92-1.568v-3.2c0-1.77-.021-3.221-.064-4.352-.042-1.13-.106-1.952-.192-2.464-.192-.939-1.013-1.408-2.464-1.408l.352-.512c.278.085 1.366.16 3.264.224.235-.021.683-.043 1.344-.064.662-.043 1.526-.107 2.592-.192l-.224.544a1.054 1.054 0 0 0-.256-.032.71.71 0 0 0-.224-.032c-1.024 0-1.653.49-1.888 1.472-.192.725-.288 3.008-.288 6.848 0 .384.01.81.032 1.28.043.448.086.939.128 1.472.107.683.203 1.237.288 1.664.107.427.235.725.384.896.32.256.843.395 1.568.416a1.8 1.8 0 0 0 .352.032h.32c.384 0 .715-.032.992-.096l-.48.8c-.661 0-1.92-.032-3.776-.096h-.416c-.15 0-.31.021-.48.064-.384.064-.618.096-.704.096-.277 0-.416-.117-.416-.352 0-.107.01-.181.032-.224a10.555 10.555 0 0 0 .224-1.6c-.405.235-.79.459-1.152.672-.341.213-.661.427-.96.64-1.045.768-2.24 1.152-3.584 1.152Zm11.391 5.728.32-.64c.085.021.256.032.512.032.661 0 1.248-.107 1.76-.32.704-.256 1.12-.661 1.248-1.216.192-.81.288-3.093.288-6.848V28.48c0-3.99-.213-6.25-.64-6.784-.405-.32-.928-.48-1.568-.48a4.702 4.702 0 0 0-1.056.128l.288-.608c.235.021.619.043 1.152.064.533.021 1.205.043 2.016.064.256.021.608-.01 1.056-.096.235-.043.416-.075.544-.096.128-.021.213-.032.256-.032.256 0 .384.107.384.32 0 .021-.01.043-.032.064v.096c-.043.277-.085.608-.128.992s-.085.8-.128 1.248c.853-1.323 2.357-2.112 4.512-2.368.192-.043.384-.064.576-.064h.576c1.856 0 3.168.65 3.936 1.952.64 1.045.96 2.688.96 4.928 0 5.632-2.208 8.448-6.624 8.448-1.941 0-3.317-.608-4.128-1.824v2.816c0 .533.021 1.024.064 1.472.064.47.128.896.192 1.28.085.576.576.992 1.472 1.248.512.15 1.045.224 1.6.224h.512l-.32.672c-.555-.15-1.248-.256-2.08-.32a46.296 46.296 0 0 0-2.368-.064c-.277 0-.843.032-1.696.096-.853.085-2.005.181-3.456.288Zm9.952-6.816c1.664 0 2.944-.768 3.84-2.304.512-.939.768-2.283.768-4.032 0-1.877-.224-3.37-.672-4.48-.64-1.6-1.76-2.4-3.36-2.4-1.685 0-2.965.768-3.84 2.304-.533.917-.8 2.261-.8 4.032 0 1.835.224 3.328.672 4.48.683 1.6 1.813 2.4 3.392 2.4Zm7.923 6.816.32-.64c.085.021.256.032.512.032.661 0 1.248-.107 1.76-.32.704-.256 1.12-.661 1.248-1.216.192-.81.288-3.093.288-6.848V28.48c0-3.99-.213-6.25-.64-6.784-.405-.32-.928-.48-1.568-.48a4.706 4.706 0 0 0-1.056.128l.288-.608c.235.021.619.043 1.152.064.533.021 1.205.043 2.016.064.256.021.608-.01 1.056-.096.235-.043.416-.075.544-.096.128-.021.213-.032.256-.032.256 0 .384.107.384.32 0 .021-.011.043-.032.064v.096c-.043.277-.085.608-.128.992s-.085.8-.128 1.248c.853-1.323 2.357-2.112 4.512-2.368.192-.043.384-.064.576-.064h.576c1.856 0 3.168.65 3.936 1.952.64 1.045.96 2.688.96 4.928 0 5.632-2.208 8.448-6.624 8.448-1.941 0-3.317-.608-4.128-1.824v2.816c0 .533.021 1.024.064 1.472.064.47.128.896.192 1.28.085.576.576.992 1.472 1.248.512.15 1.045.224 1.6.224h.512l-.32.672c-.555-.15-1.248-.256-2.08-.32a46.287 46.287 0 0 0-2.368-.064c-.277 0-.843.032-1.696.096-.853.085-2.005.181-3.456.288Zm9.952-6.816c1.664 0 2.944-.768 3.84-2.304.512-.939.768-2.283.768-4.032 0-1.877-.224-3.37-.672-4.48-.64-1.6-1.76-2.4-3.36-2.4-1.685 0-2.965.768-3.84 2.304-.533.917-.8 2.261-.8 4.032 0 1.835.224 3.328.672 4.48.683 1.6 1.813 2.4 3.392 2.4Zm8.083.768.32-.64c.085.021.171.032.256.032h.32c1.685 0 2.635-.49 2.848-1.472.085-.341.149-1.077.192-2.208.064-1.152.096-2.699.096-4.64v-4.672c.021-3.99-.192-6.25-.64-6.784-.384-.32-.896-.48-1.536-.48-.384 0-.747.043-1.088.128l.288-.608c.256.021.651.043 1.184.064.533.021 1.195.053 1.984.096.149 0 .309-.01.48-.032.171-.021.363-.053.576-.096.405-.085.683-.128.832-.128.235 0 .352.107.352.32a.36.36 0 0 1-.032.16c-.149.832-.267 2.07-.352 3.712a163.657 163.657 0 0 0-.096 6.176V27.2c0 1.77.021 3.232.064 4.384.043 1.13.107 1.941.192 2.432.128.576.608.97 1.44 1.184.448.128.917.192 1.408.192h.32c.107 0 .213-.01.32-.032l-.352.736c-.277-.107-.779-.181-1.504-.224a41.747 41.747 0 0 0-2.784-.128c-.192 0-.715.032-1.568.096-.832.064-2.005.15-3.52.256Zm13.241 5.632c-.96 0-1.792-.17-2.496-.512-.555-.256-.853-.544-.896-.864a32.366 32.366 0 0 0-.16-1.856 21.847 21.847 0 0 0-.192-1.28l.992-.256c.064.448.128.832.192 1.152.171.683.395 1.248.672 1.696.448.64 1.088.96 1.92.96.917 0 1.707-.565 2.368-1.696a6.36 6.36 0 0 0 .672-1.376 9.14 9.14 0 0 0 .448-1.536 233.278 233.278 0 0 0-1.792-4.736 544.916 544.916 0 0 0-1.184-3.168c-1.557-3.947-2.549-6.09-2.976-6.432-.405-.341-1.088-.512-2.048-.512h-.384a.855.855 0 0 0-.32.064l.288-.64c.192.021.501.043.928.064.405.021.939.053 1.6.096l1.76.096c1.301 0 2.827-.096 4.576-.288l-.448.672h-.32c-.469 0-.917.064-1.344.192-.555.235-.832.523-.832.864 0 1.28 1.12 4.544 3.36 9.792.128.235.224.352.288.352.085 0 .171-.096.256-.288a38.349 38.349 0 0 0 1.984-5.024c.789-2.304 1.184-3.904 1.184-4.8 0-.747-.661-1.12-1.984-1.12h-.448c-.128 0-.256.021-.384.064l.48-.672c.149.021.405.043.768.064.384.021.896.043 1.536.064.256.021.512.032.768.032h2.08c.64 0 1.568-.064 2.784-.192l-.32.576c-.661 0-1.365.203-2.112.608-.683.405-1.365 1.28-2.048 2.624a38.548 38.548 0 0 0-1.28 2.72 60.778 60.778 0 0 0-1.408 3.744l-2.528 7.168c-.832 2.39-2.165 3.584-4 3.584Zm26.847-4.704a5.083 5.083 0 0 0-.352-.48 8.018 8.018 0 0 0-.672-.8c-.512-.555-.832-1.003-.96-1.344a14.52 14.52 0 0 1-.288-.896 64.355 64.355 0 0 0-.384-1.248 48.875 48.875 0 0 0-.704-2.016 79.122 79.122 0 0 0-.896-2.528 318.254 318.254 0 0 0-3.488-9.568 190.56 190.56 0 0 0-.352 3.52 172.44 172.44 0 0 0-.288 3.488 338.139 338.139 0 0 0-.256 3.904 47.12 47.12 0 0 0-.096 2.656c0 1.11.064 1.91.192 2.4.256.853 1.056 1.28 2.4 1.28h.32c.128-.021.256-.032.384-.032l-.352.672c-.171-.043-.587-.085-1.248-.128-.64-.043-1.526-.107-2.656-.192-.96.064-1.75.128-2.369.192-.618.064-1.077.139-1.375.224l.288-.64c1.322 0 2.08-.416 2.272-1.248.341-1.344.618-2.763.832-4.256.234-1.515.416-3.104.544-4.768l.704-8.224c-.171-.81-.779-1.216-1.824-1.216-.128 0-.256.01-.384.032-.107 0-.214.01-.32.032l.288-.608c.192.021.49.043.896.064.405.021.928.053 1.568.096a.605.605 0 0 1 .192-.032h.256c.32 0 .682.021 1.088.064.426.021.896.053 1.408.096 0 .256.042.619.128 1.088.106.47.245 1.056.416 1.76a73.49 73.49 0 0 0 1.28 4.288 204.258 204.258 0 0 0 1.824 5.088c.192.555.448 1.248.768 2.08.32.832.682 1.792 1.088 2.88.106.235.192.352.256.352.085 0 .17-.096.256-.288.362-.704.832-1.77 1.408-3.2.576-1.45 1.269-3.275 2.08-5.472 1.813-4.779 2.72-7.595 2.72-8.448 0-.085.17-.128.512-.128h.128a.605.605 0 0 1 .192-.032c.106 0 .213.01.32.032h.416l.736.032c1.002-.043 2.442-.17 4.32-.384l-.384.576a1.06 1.06 0 0 0-.256-.032h-.288c-.811 0-1.408.256-1.792.768-.064.15-.107.427-.128.832-.022.384-.032.907-.032 1.568 0 1.152.032 2.421.096 3.808.085 1.387.202 2.89.352 4.512.32 3.605.608 5.877.864 6.816.128.555.608.95 1.44 1.184.49.128.97.192 1.44.192h.288c.106 0 .213-.01.32-.032l-.352.736c-.576-.17-2.176-.288-4.8-.352-.171 0-.683.032-1.536.096-.832.064-2.006.15-3.52.256l.32-.64a.707.707 0 0 0 .224.032h.256c.682 0 1.28-.107 1.792-.32.704-.299 1.109-.704 1.216-1.216.021-.128.032-.299.032-.512.021-.213.032-.459.032-.736 0-1.173-.096-3.019-.288-5.536-.064-.939-.16-2.123-.288-3.552-.128-1.43-.299-3.115-.512-5.056-1.302 2.219-2.816 5.536-4.544 9.952-1.6 4.053-2.56 6.837-2.88 8.352l-.288.16Zm22.722-.768c-2.346 0-4-.661-4.96-1.984-.81-1.173-1.216-3.019-1.216-5.536 0-2.07.331-3.755.992-5.056 1.067-2.112 3.222-3.168 6.464-3.168 1.878 0 3.296.448 4.256 1.344.896.832 1.344 1.973 1.344 3.424l-.928 1.216c-.512.725-.842 1.077-.992 1.056-.469-.064-.97-.096-1.504-.096-.085 0-.192.01-.32.032h-.32l-2.368.064c-.853 0-1.632.021-2.336.064-.682.021-1.312.053-1.888.096v.512c0 2.155.192 3.701.576 4.64.662 1.579 2.038 2.368 4.128 2.368 2.923 0 4.64-1.323 5.152-3.968a.907.907 0 0 0 .032-.224v-.192l.672-.32c-.042.427-.074 1.152-.096 2.176.022.213.032.448.032.704.022.256.032.544.032.864-.021.213-.16.427-.416.64-.896.896-3.008 1.344-6.336 1.344Zm-1.216-9.728h.704c.235 0 .491-.01.768-.032a54.95 54.95 0 0 0 2.304-.096 41.307 41.307 0 0 0 1.6-.128c.427-.064.64-.416.64-1.056a4 4 0 0 0-.032-.512 2.818 2.818 0 0 0-.128-.544c-.533-1.792-1.781-2.688-3.744-2.688-2.624 0-4.128 1.323-4.512 3.968a1.302 1.302 0 0 0-.032.352c0 .15-.021.341-.064.576.235.043.555.085.96.128.427.021.939.032 1.536.032Z" fill="#29435A"/></svg>